<svg height="512" viewBox="0 0 60 60" width="512" xmlns="http://www.w3.org/2000/svg"><g id="Icons"><rect fill="#3b97d3" height="42" rx="4" width="58" x="1" y="1"/><rect fill="#b0d3f0" height="26" rx="1" width="50" x="5" y="5"/><path d="m59 21.5v17.5a4 4 0 0 1 -4 4h-50a4 4 0 0 1 -4-4v-4.68a34.781 34.781 0 0 1 4-7.91v3.59a1 1 0 0 0 1 1h48a1 1 0 0 0 1-1v-11.99a34.015 34.015 0 0 1 4 3.49z" fill="#2980ba"/><path d="m55 18.01v11.99a1 1 0 0 1 -1 1h-48a1 1 0 0 1 -1-1v-3.59a34.98 34.98 0 0 1 50-8.4z" fill="#90bae1"/><path d="m19 42h22v6h-22z" fill="#3f5c6c"/><path d="m59 35v4a4 4 0 0 1 -4 4h-50a4 4 0 0 1 -4-4v-4z" fill="#547580"/><path d="m1 55 1.447-2.894a2 2 0 0 1 1.789-1.106h51.528a2 2 0 0 1 1.789 1.106l1.447 2.894v2a2 2 0 0 1 -2 2h-54a2 2 0 0 1 -2-2z" fill="#3b97d3"/><path d="m14 47h32a2 2 0 0 1 2 2v2a0 0 0 0 1 0 0h-36a0 0 0 0 1 0 0v-2a2 2 0 0 1 2-2z" fill="#547580"/><circle cx="30" cy="39" fill="#d1d4d1" r="1"/><path d="m59 55v2a2.006 2.006 0 0 1 -2 2h-54a2.006 2.006 0 0 1 -2-2v-2z" fill="#2980ba"/></g></svg>