<?xml version="1.0" encoding="UTF-8"?>
<svg xmlns="http://www.w3.org/2000/svg" xmlns:xlink="http://www.w3.org/1999/xlink" viewBox="0 0 48 48" width="48px" height="48px">
<g id="surface1868913">
<path style=" stroke:none;fill-rule:nonzero;fill:rgb(100%,25.098041%,50.588238%);fill-opacity:1;" d="M 24 48 C 10.746094 48 0 37.253906 0 24 C 0 10.746094 10.746094 0 24 0 C 37.253906 0 48 10.746094 48 24 C 48 37.253906 37.253906 48 24 48 Z M 24 48 "/>
<path style=" stroke:none;fill-rule:nonzero;fill:rgb(100%,100%,100%);fill-opacity:1;" d="M 24.5 44.128906 L 7.875 34.304688 L 7.875 14.695312 L 24.5 4.871094 L 41.125 14.695312 L 41.125 34.304688 Z M 9.773438 33.222656 L 24.5 41.921875 L 39.226562 33.222656 L 39.226562 15.777344 L 24.5 7.078125 L 9.773438 15.777344 Z M 9.773438 33.222656 "/>
<path style=" stroke:none;fill-rule:nonzero;fill:rgb(100%,100%,100%);fill-opacity:1;" d="M 27.824219 6.449219 C 27.824219 8.285156 26.335938 9.773438 24.5 9.773438 C 22.664062 9.773438 21.175781 8.285156 21.175781 6.449219 C 21.175781 4.613281 22.664062 3.125 24.5 3.125 C 26.335938 3.125 27.824219 4.613281 27.824219 6.449219 Z M 27.824219 6.449219 "/>
<path style=" stroke:none;fill-rule:nonzero;fill:rgb(100%,100%,100%);fill-opacity:1;" d="M 27.824219 42.550781 C 27.824219 44.386719 26.335938 45.875 24.5 45.875 C 22.664062 45.875 21.175781 44.386719 21.175781 42.550781 C 21.175781 40.714844 22.664062 39.226562 24.5 39.226562 C 26.335938 39.226562 27.824219 40.714844 27.824219 42.550781 Z M 27.824219 42.550781 "/>
<path style=" stroke:none;fill-rule:nonzero;fill:rgb(100%,100%,100%);fill-opacity:1;" d="M 12.625 33.050781 C 12.625 34.886719 11.136719 36.375 9.300781 36.375 C 7.464844 36.375 5.976562 34.886719 5.976562 33.050781 C 5.976562 31.214844 7.464844 29.726562 9.300781 29.726562 C 11.136719 29.726562 12.625 31.214844 12.625 33.050781 Z M 12.625 33.050781 "/>
<path style=" stroke:none;fill-rule:nonzero;fill:rgb(100%,100%,100%);fill-opacity:1;" d="M 43.023438 33.050781 C 43.023438 34.886719 41.535156 36.375 39.699219 36.375 C 37.863281 36.375 36.375 34.886719 36.375 33.050781 C 36.375 31.214844 37.863281 29.726562 39.699219 29.726562 C 41.535156 29.726562 43.023438 31.214844 43.023438 33.050781 Z M 43.023438 33.050781 "/>
<path style=" stroke:none;fill-rule:nonzero;fill:rgb(100%,100%,100%);fill-opacity:1;" d="M 12.625 15.949219 C 12.625 17.785156 11.136719 19.273438 9.300781 19.273438 C 7.464844 19.273438 5.976562 17.785156 5.976562 15.949219 C 5.976562 14.113281 7.464844 12.625 9.300781 12.625 C 11.136719 12.625 12.625 14.113281 12.625 15.949219 Z M 12.625 15.949219 "/>
<path style=" stroke:none;fill-rule:nonzero;fill:rgb(100%,100%,100%);fill-opacity:1;" d="M 43.023438 15.949219 C 43.023438 17.785156 41.535156 19.273438 39.699219 19.273438 C 37.863281 19.273438 36.375 17.785156 36.375 15.949219 C 36.375 14.113281 37.863281 12.625 39.699219 12.625 C 41.535156 12.625 43.023438 14.113281 43.023438 15.949219 Z M 43.023438 15.949219 "/>
<path style=" stroke:none;fill-rule:nonzero;fill:rgb(100%,100%,100%);fill-opacity:1;" d="M 41.808594 34.476562 L 7.191406 34.476562 L 24.5 4.054688 Z M 10.460938 32.574219 L 38.539062 32.574219 L 24.5 7.894531 Z M 10.460938 32.574219 "/>
</g>
</svg>
